<svg version="1.1" id="Layer_1" xmlns="http://www.w3.org/2000/svg" xmlns:xlink="http://www.w3.org/1999/xlink" x="0px" y="0px"
	 width="100%" viewBox="0 0 1080 1080" enable-background="new 0 0 1080 1080" xml:space="preserve">

<path fill="#20D54D" opacity="1.000000" stroke="none" 
	d="
M697.840881,846.958191 
	C689.383545,831.326660 680.926270,815.695068 672.100708,799.529541 
	C670.769470,797.424988 669.806519,795.854431 668.844177,793.916809 
	C667.510803,790.951355 666.176758,788.353027 664.651855,785.514648 
	C663.436035,783.562378 662.411072,781.850098 661.386108,780.137817 
	C654.064514,766.408508 646.779785,752.659363 639.409119,738.956482 
	C633.980896,728.864868 628.425781,718.841614 622.952759,708.774048 
	C610.220581,685.353271 597.503967,661.924072 584.527893,638.032288 
	C585.036499,650.599243 585.479736,662.512268 586.010742,674.421448 
	C586.636597,688.458679 587.321472,702.493347 588.012024,716.527588 
	C588.653564,729.564575 589.355225,742.598633 589.993958,755.635742 
	C590.366272,763.234497 590.808472,770.833740 590.973572,778.438049 
	C591.467651,801.210938 574.014587,821.776428 552.249573,826.940125 
	C549.245544,827.652832 546.076355,827.941711 542.981567,827.955017 
	C522.658752,828.042297 502.334900,827.905151 482.012329,828.018860 
	C432.765442,828.294250 383.519379,828.795776 334.272308,828.905762 
	C322.503998,828.932068 311.145111,826.400085 300.746429,818.963379 
	C299.098206,817.771301 298.046173,816.804871 296.861450,815.543457 
	C294.532654,813.162170 292.336517,811.075806 290.026703,808.674438 
	C288.959381,807.208435 288.005676,806.057495 287.052002,804.906494 
	C285.043030,800.096619 282.279205,795.445740 281.223877,790.434998 
	C280.014465,784.692871 280.321289,778.631409 279.947693,771.829956 
	C279.897766,769.621765 279.869598,768.292297 280.025330,766.625244 
	C281.087250,763.155640 281.965210,760.023560 283.003082,756.592407 
	C283.772247,754.917603 284.381500,753.541931 284.990784,752.166199 
	C287.285278,748.975220 289.579773,745.784241 292.322174,742.123840 
	C293.781647,740.516235 294.793213,739.378113 296.065552,738.095947 
	C298.877136,736.028137 301.428009,734.104309 304.294403,732.055054 
	C306.069824,731.007690 307.529724,730.085815 308.989594,729.163940 
	C322.554779,723.214783 336.918884,725.093140 351.040314,725.046570 
	C393.364532,724.906982 435.689484,724.979980 478.915710,725.009521 
	C481.525787,725.048950 483.234314,725.048950 485.200867,725.048950 
	C485.064819,722.214661 484.963593,720.106140 484.833679,717.646240 
	C484.484711,716.198608 484.164398,715.102234 483.907776,713.550293 
	C483.928162,710.312866 483.884857,707.531128 483.882355,704.350525 
	C483.896637,702.622314 483.870087,701.292908 483.843536,699.963501 
	C483.562347,697.046814 483.145569,694.135864 483.022369,691.212524 
	C482.306427,674.222656 481.720764,657.227173 480.969116,640.239014 
	C480.408264,627.563171 479.743744,614.890625 478.971252,602.226074 
	C478.461487,593.868042 477.440521,585.536133 477.108459,577.174255 
	C476.913849,572.273376 477.621826,567.336731 477.847015,562.022949 
	C477.770294,561.629700 477.738861,561.899353 478.080933,561.881775 
	C478.563721,561.241760 478.704437,560.619385 478.917725,559.620117 
	C479.274323,557.543396 479.558350,555.843445 479.917908,553.746582 
	C480.679596,550.264038 481.365723,547.178467 482.330078,543.872314 
	C483.020203,542.102356 483.432098,540.552917 483.844025,539.003479 
	C487.545532,529.549316 491.247070,520.095093 495.056732,509.967072 
	C495.773438,507.917633 496.382019,506.542053 497.305237,504.978333 
	C499.029175,501.538910 500.438446,498.287628 501.997192,494.731293 
	C502.712585,493.034332 503.278503,491.642426 503.844360,490.250488 
	C508.891235,478.371185 514.052307,466.538727 518.949402,454.597992 
	C522.974182,444.784027 526.651001,434.827850 530.548767,424.961060 
	C532.768066,419.342987 531.049011,412.458832 526.171265,408.720856 
	C513.320801,398.872925 501.861816,401.847382 493.378174,413.829102 
	C483.112335,428.327789 474.969086,444.320557 465.750092,459.571716 
	C455.682098,476.227386 445.761597,492.987274 435.152954,509.295959 
	C427.736572,520.697144 415.967102,526.137451 402.927734,527.826721 
	C389.370117,529.583069 376.133881,527.383362 364.919983,518.887756 
	C354.689972,511.137512 347.353058,501.145447 344.331757,487.650635 
	C343.960754,485.733673 343.903442,484.421448 343.780792,482.696777 
	C343.424164,479.439453 343.132843,476.594513 342.874451,473.388367 
	C343.219391,471.672516 343.531433,470.317932 343.843445,468.963318 
	C344.872070,458.219666 350.643402,449.497711 355.929749,440.564331 
	C357.662445,437.636322 359.318481,434.662994 361.282349,431.106934 
	C362.650055,428.752686 363.744965,427.001892 364.952393,424.903412 
	C366.727875,421.733978 368.390808,418.912231 370.318634,415.888733 
	C371.385742,414.180298 372.187958,412.673584 372.990173,411.166870 
	C380.798370,398.153229 388.621063,385.148315 396.411285,372.123932 
	C406.903656,354.581726 417.024658,336.805298 427.951538,319.538513 
	C437.852814,303.892365 452.248718,295.886139 471.211365,295.931091 
	C543.336792,296.102081 615.464355,295.749756 687.587769,296.165161 
	C707.113403,296.277588 725.338196,301.795776 738.711060,317.361969 
	C745.312805,325.046478 751.054871,333.468109 757.211426,341.536743 
	C770.329956,358.729462 783.479248,375.898743 796.587708,393.099060 
	C803.934326,402.738861 811.432800,412.275238 818.399353,422.184082 
	C820.220642,424.774536 822.001038,425.016388 824.523010,425.014435 
	C853.839783,424.991760 883.156799,424.918945 912.473083,425.040070 
	C924.113892,425.088165 933.989990,429.820770 942.800537,437.244781 
	C951.593994,444.654388 957.518188,454.122284 959.331055,465.129211 
	C962.061707,481.707947 959.803406,497.591217 947.747009,510.815674 
	C936.548584,523.099060 922.859253,528.560120 906.251343,528.106323 
	C889.107605,527.637878 871.940613,528.019897 853.888794,528.043213 
	C850.753540,528.089539 848.513184,528.122498 845.792358,528.092163 
	C841.407288,528.073364 837.502747,528.117859 833.188721,528.119568 
	C830.574707,528.102783 828.370178,528.128784 826.165588,528.154785 
	C814.836853,528.103149 803.508118,528.035217 792.179321,528.003845 
	C775.112244,527.956482 762.067810,520.162048 752.005371,506.901672 
	C741.060242,492.477875 730.302185,477.912109 719.264526,463.143280 
	C710.334534,483.154846 701.589661,502.893097 692.721069,522.575562 
	C686.869812,535.561523 680.838562,548.466370 674.892395,561.409546 
	C673.184204,565.127808 671.327454,568.791077 669.882141,572.609558 
	C669.389954,573.909790 669.454102,575.875854 670.104858,577.085327 
	C680.195862,595.839783 690.457825,614.502197 700.611938,633.222961 
	C707.798706,646.472839 714.826233,659.809204 722.025513,673.052185 
	C736.265869,699.247070 750.605835,725.387878 764.844421,751.583679 
	C771.963928,764.681946 778.893250,777.883545 786.009949,790.983337 
	C800.242615,817.181519 814.738525,843.239014 828.720093,869.570007 
	C834.064514,879.634949 840.009033,889.870422 842.679688,900.763794 
	C848.167114,923.146667 839.588745,944.569336 819.480957,956.774109 
	C801.656067,967.593323 770.825623,966.017761 755.632507,948.900085 
	C750.693115,943.335022 747.146545,936.519836 743.076965,930.203125 
	C741.397156,927.595703 740.017090,924.795288 738.192993,921.555054 
	C737.033997,919.386047 736.182800,917.744507 735.189697,915.759033 
	C733.347290,912.531372 731.646790,909.647705 729.942261,906.423218 
	C728.957581,904.667847 727.976807,903.253357 726.996094,901.838806 
	C720.717896,890.103821 714.439636,878.368896 707.971069,865.984375 
	C706.870300,863.858093 705.959778,862.381409 705.016846,860.546997 
	C703.289612,857.350708 701.594727,854.512085 699.896973,851.341187 
	C699.209717,849.658630 698.525269,848.308411 697.840881,846.958191 
z"/>
<path fill="#20D54D" opacity="1.000000" stroke="none" 
	d="
M705.119751,120.992996 
	C706.819580,120.652473 708.094910,120.006516 709.342041,120.056992 
	C722.486267,120.588997 735.763000,118.361206 748.711304,122.899666 
	C760.139954,126.905449 770.668030,132.340149 779.746277,140.310806 
	C794.132507,152.941620 803.496582,168.533615 807.258118,187.485825 
	C810.920715,205.939636 809.271484,223.668579 801.607178,240.909668 
	C793.319519,259.553009 779.830505,273.281647 761.880493,282.434875 
	C745.448547,290.814056 727.881775,292.656647 709.592590,290.145294 
	C690.772522,287.561005 674.877319,279.309174 661.762878,266.062775 
	C648.543823,252.710724 640.457153,236.582840 637.864136,217.636856 
	C635.374878,199.448883 637.669189,182.053513 646.160522,166.006119 
	C658.153137,143.341995 676.547852,128.070511 701.887268,121.924736 
	C702.836853,121.694412 703.751282,121.318794 705.119751,120.992996 
z"/>
<path fill="#E8E8E8" opacity="1.000000" stroke="none" 
	d="
M483.387451,699.963196 
	C483.870087,701.292908 483.896637,702.622314 483.426758,704.351196 
	C461.101715,704.750610 439.272461,704.833862 417.445465,704.647278 
	C414.657379,704.623413 411.485168,703.790344 409.192871,702.272217 
	C405.777496,700.010132 402.882355,696.909546 399.947388,693.983582 
	C379.297333,673.396729 358.663422,652.793457 338.110260,632.109924 
	C335.226288,629.207642 332.171021,627.891235 327.993622,627.915527 
	C301.166962,628.071411 274.336334,627.791687 247.513107,628.132812 
	C240.469299,628.222351 235.311981,627.515503 231.510361,620.332458 
	C227.875671,613.464905 218.423767,611.306396 210.817444,613.746521 
	C202.580414,616.388855 197.165283,623.093994 196.801636,631.101074 
	C196.344849,641.159668 201.947891,649.606079 210.722412,652.085999 
	C219.855927,654.667480 229.066315,650.751709 234.126312,641.675964 
	C235.727585,638.803833 237.460190,637.860535 240.707611,637.881592 
	C264.034943,638.033325 287.363708,637.964539 310.692047,637.960510 
	C313.523468,637.960022 316.462708,638.415649 319.165314,637.817078 
	C326.182526,636.263123 331.611420,638.364685 336.562347,643.409485 
	C357.990906,665.244324 379.596436,686.905457 401.077484,708.689026 
	C404.790405,712.454163 409.005951,714.209656 414.361481,714.168579 
	C437.521393,713.990967 460.683044,714.039551 483.844055,714.005859 
	C484.164398,715.102234 484.484711,716.198608 484.561768,717.677246 
	C483.887115,718.344666 483.455780,718.629761 483.024445,718.914856 
	C459.536285,718.907227 436.047821,718.835449 412.560150,718.939575 
	C407.074158,718.963928 402.756683,717.180359 398.862366,713.250671 
	C377.521545,691.716064 355.940399,670.418945 334.670532,648.815125 
	C330.352386,644.429199 326.185028,642.391724 319.686737,642.532166 
	C294.710907,643.071838 269.716248,642.802612 244.729279,642.689453 
	C241.359177,642.674194 239.357910,643.339966 237.258347,646.524109 
	C231.959885,654.559448 223.901306,658.654175 214.267059,657.590881 
	C203.620056,656.415833 195.492065,651.012207 192.783783,640.017456 
	C190.388214,630.292236 191.980362,621.286194 199.723083,614.083801 
	C210.179550,604.357056 228.406754,606.206238 236.444046,618.207336 
	C238.968857,621.977234 241.623077,623.247864 246.080551,623.213684 
	C273.565186,623.003113 301.052429,623.162170 328.538269,623.061035 
	C333.842682,623.041504 338.071350,624.712769 341.832947,628.503479 
	C363.891937,650.733093 386.124054,672.791138 408.133087,695.069763 
	C411.556854,698.535461 415.119476,700.074036 419.964142,700.035095 
	C440.952057,699.866455 461.942108,699.962830 483.387451,699.963196 
z"/>
<path fill="#D5D5D5" opacity="1.000000" stroke="none" 
	d="
M668.843567,794.283875 
	C669.806519,795.854431 670.769470,797.424988 671.801392,799.304565 
	C660.404297,810.974060 648.859863,822.256653 637.494202,833.716614 
	C626.104797,845.200439 615.098816,857.074219 603.448608,868.282227 
	C600.813843,870.817017 596.227661,872.496399 592.511841,872.547546 
	C564.532104,872.932800 536.544800,872.908142 508.561371,872.745361 
	C504.428528,872.721313 501.929169,873.833374 499.747620,877.403015 
	C490.698761,892.209351 465.558411,891.692139 457.329132,876.265320 
	C450.659973,863.763184 452.338684,844.591797 470.440674,838.645630 
	C482.335022,834.738464 493.567047,838.227844 501.207825,849.875305 
	C501.990112,851.067810 503.941711,852.165100 505.356018,852.171753 
	C532.672974,852.299927 559.991028,852.305908 587.307739,852.149780 
	C589.205261,852.138977 591.561646,851.137451 592.915771,849.798767 
	C608.433472,834.458801 623.838684,819.004333 639.185913,803.493347 
	C646.585266,796.015015 653.798523,788.352600 661.241089,780.455688 
	C662.411072,781.850098 663.436035,783.562378 664.335266,785.651733 
	C661.552185,788.686707 658.829163,791.282715 656.249084,794.013733 
	C646.594238,804.233643 637.114441,814.622253 627.324341,824.710205 
	C617.585022,834.745789 607.646667,844.594910 597.560791,854.281372 
	C595.715149,856.054016 592.827515,857.332153 590.273987,857.646729 
	C585.802612,858.197449 581.217407,857.828003 576.679932,857.838745 
	C552.018127,857.896912 527.356079,857.999817 502.694794,857.915833 
	C500.879242,857.909668 498.676514,856.973450 497.341248,855.730835 
	C494.961395,853.516113 493.283234,850.564636 490.999451,848.226013 
	C484.840057,841.918701 475.994476,841.502991 467.620209,846.914673 
	C461.417236,850.923218 458.132599,861.523621 460.621368,868.547791 
	C463.349274,876.247070 468.750885,881.046387 476.595001,882.097534 
	C484.748047,883.190063 491.406494,879.663269 495.458252,872.381348 
	C497.698273,868.355469 500.364136,866.992310 505.111084,867.034302 
	C532.936340,867.280273 560.766846,866.928772 588.592468,867.151733 
	C594.128723,867.196106 597.917358,865.332947 601.596863,861.453979 
	C616.302917,845.950623 631.110046,830.537781 646.147766,815.356812 
	C653.406494,808.028931 661.259583,801.289673 668.843567,794.283875 
z"/>
<path fill="#E7E7E7" opacity="1.000000" stroke="none" 
	d="
M479.842346,554.143433 
	C479.558350,555.843445 479.274323,557.543396 478.582153,559.733582 
	C478.028961,560.782349 477.883911,561.340820 477.738861,561.899353 
	C477.738861,561.899353 477.770294,561.629700 477.650208,561.570801 
	C468.938873,570.036560 460.333466,578.547058 451.765106,587.094788 
	C449.292358,589.561523 447.094604,592.328308 444.471924,594.614807 
	C440.393372,598.170654 435.833160,600.166809 430.053650,600.142761 
	C385.058960,599.955505 340.063019,600.085144 295.067932,599.951965 
	C291.482697,599.941345 289.611938,601.042480 287.741791,604.113892 
	C281.669830,614.086121 270.653595,617.882019 259.298676,614.445923 
	C248.641769,611.221069 241.884323,601.859192 242.003616,590.484924 
	C242.126770,578.742310 248.842346,569.888550 260.088348,566.642029 
	C269.751068,563.852539 281.391785,567.708740 286.810242,576.291504 
	C289.294617,580.226746 291.984802,581.230286 296.407166,581.211670 
	C338.735474,581.033508 381.065033,581.049500 423.393646,581.185974 
	C427.929352,581.200623 431.285522,579.797546 434.395142,576.608337 
	C444.166077,566.587646 454.211609,556.833984 463.948181,546.780640 
	C469.237701,541.319031 475.276855,538.278564 483.410614,539.003174 
	C483.432098,540.552917 483.020203,542.102356 481.912018,543.783508 
	C476.342407,543.398865 472.612335,545.523865 469.301239,548.868469 
	C458.873962,559.401245 448.301575,569.791992 437.972015,580.419250 
	C434.119629,584.382568 429.846283,586.091553 424.289001,586.073792 
	C381.153046,585.935486 338.015839,585.888977 294.880798,586.132874 
	C289.409119,586.163818 285.980682,585.029053 283.007965,580.059570 
	C278.168732,571.969971 269.675690,568.894348 261.681671,571.089111 
	C252.950623,573.486206 246.787994,582.140686 246.997803,591.710388 
	C247.186584,600.320190 253.615112,608.013550 262.352966,610.086670 
	C271.485321,612.253418 280.039764,608.492493 284.170471,599.897400 
	C285.916168,596.265076 288.002197,595.130554 292.007782,595.144409 
	C337.974976,595.303406 383.943176,595.307007 429.910126,595.112915 
	C433.105194,595.099426 437.100494,594.063782 439.336334,592.000305 
	C447.020111,584.908569 453.876343,576.927002 461.456818,569.714233 
	C467.265228,564.187561 473.691101,559.309814 479.842346,554.143433 
z"/>
<path fill="#E8E8E8" opacity="1.000000" stroke="none" 
	d="
M503.387939,490.249878 
	C503.278503,491.642426 502.712585,493.034332 501.541504,494.731750 
	C491.109619,495.037292 481.281738,495.127808 471.456696,494.999329 
	C466.522644,494.934814 462.587891,496.564331 459.103455,500.117371 
	C446.859406,512.602112 434.376984,524.853638 422.169189,537.373169 
	C418.880768,540.745605 415.307770,542.080322 410.665344,542.057312 
	C384.683533,541.928406 358.700531,541.940002 332.718597,542.056458 
	C328.941254,542.073486 326.611176,541.469788 324.701508,537.494568 
	C320.808655,529.391174 310.819550,525.156311 302.527069,527.071106 
	C294.076752,529.022339 286.948975,537.560669 287.156464,546.672119 
	C287.337097,554.606018 291.144928,563.993591 304.434235,566.446960 
	C312.109314,567.863770 322.031311,563.047058 325.036316,555.394836 
	C326.377228,551.980347 328.261871,551.098694 331.706970,551.171936 
	C341.862183,551.387756 352.024933,551.248962 362.184753,551.249023 
	C378.673615,551.249146 395.175262,550.871460 411.645203,551.429565 
	C418.528961,551.662964 423.489532,549.849121 428.213135,544.888672 
	C439.580536,532.951294 451.290527,521.330933 463.138641,509.868317 
	C465.460938,507.621552 468.946411,505.550812 472.037231,505.322968 
	C480.313904,504.712921 488.667511,505.147095 496.990601,505.166443 
	C496.382019,506.542053 495.773438,507.917633 495.003113,509.592163 
	C488.177032,509.891479 481.490662,509.578400 474.859100,510.044708 
	C472.161530,510.234375 468.963898,511.478912 467.050568,513.333618 
	C454.371521,525.624023 441.922302,538.154114 429.529968,550.735962 
	C425.930237,554.390808 421.970154,556.139709 416.748749,556.110168 
	C389.259308,555.954529 361.768341,556.080200 334.278442,555.972229 
	C331.473206,555.961243 330.000824,556.753906 328.643433,559.301575 
	C323.089966,569.725037 310.408447,574.383057 299.169708,570.311890 
	C285.721954,565.440552 281.209534,554.844055 282.441833,544.129822 
	C283.991241,530.658875 293.745544,522.254944 306.283600,521.922852 
	C316.050110,521.664185 323.223602,525.812561 328.252655,533.897278 
	C329.826721,536.427795 331.632141,537.213501 334.637756,537.195007 
	C359.628021,537.041199 384.620239,537.016541 409.610199,537.193665 
	C413.996338,537.224670 417.103668,535.776672 420.098785,532.709900 
	C431.970947,520.553528 444.180267,508.724030 455.946014,496.467529 
	C460.355164,491.874481 465.327576,490.131958 471.442719,490.211334 
	C481.937347,490.347565 492.435059,490.249115 503.387939,490.249878 
z"/>
<path fill="#E7E7E7" opacity="1.000000" stroke="none" 
	d="
M295.804749,738.239929 
	C294.793213,739.378113 293.781647,740.516235 292.483215,741.810669 
	C279.798218,729.409363 267.476135,716.774475 254.904419,704.393066 
	C253.355469,702.867615 250.478531,702.014038 248.209671,701.999573 
	C222.379791,701.835449 196.547623,701.995789 170.718567,701.777100 
	C167.210220,701.747375 166.317398,703.788391 164.887161,705.942688 
	C158.684708,715.285156 147.486389,719.386902 136.964233,716.232788 
	C126.329468,713.044922 119.227531,703.314697 119.245300,691.956177 
	C119.262932,680.691284 126.912201,670.738892 137.508347,668.194397 
	C149.249908,665.374878 160.330414,669.763245 165.623062,679.639771 
	C166.955780,682.126648 168.353577,683.047363 171.221436,683.034485 
	C198.718307,682.910645 226.216431,683.043091 253.712982,682.887573 
	C258.929993,682.858093 262.903534,684.577271 266.508240,688.236938 
	C278.904205,700.821716 291.434296,713.274658 303.967346,725.723389 
	C305.233459,726.980957 306.865509,727.870117 308.658661,729.047119 
	C307.529724,730.085815 306.069824,731.007690 303.961487,731.950256 
	C301.944244,730.779968 300.498566,729.665771 299.218597,728.385925 
	C286.964966,716.134094 274.910309,703.674683 262.364075,691.731201 
	C259.801331,689.291504 255.432251,687.561340 251.881180,687.535767 
	C223.577133,687.332031 195.269516,687.663208 166.963303,687.623779 
	C165.514572,687.621765 163.815720,685.952271 162.673737,684.667664 
	C160.293381,681.989990 158.559631,678.657715 155.927841,676.300293 
	C150.613480,671.539978 141.110825,671.116699 134.639572,674.683350 
	C127.358757,678.696228 123.835617,685.178711 124.208755,693.088501 
	C124.661270,702.681274 131.493790,710.253723 139.807236,711.979004 
	C148.692444,713.823059 157.513580,709.356079 162.263641,700.360352 
	C163.577118,697.872864 165.103958,696.912354 168.019424,696.926331 
	C194.844925,697.055054 221.673187,696.853455 248.495132,697.188354 
	C251.894226,697.230713 256.036835,698.992676 258.513428,701.347656 
	C271.182312,713.394348 283.417755,725.896851 295.804749,738.239929 
z"/>
<path fill="#E8E8E8" opacity="1.000000" stroke="none" 
	d="
M343.387360,468.962982 
	C343.531433,470.317932 343.219391,471.672516 342.418823,473.388977 
	C317.272583,473.750397 292.613220,473.616882 267.959167,473.917664 
	C264.871796,473.955322 261.105103,475.546234 258.865601,477.686249 
	C250.336319,485.836853 242.366989,494.570435 234.022247,502.920105 
	C232.678238,504.264923 230.531921,505.387177 228.680618,505.515228 
	C225.601624,505.728210 222.461639,504.802582 219.346497,504.796661 
	C208.576675,504.776154 201.078125,512.313354 200.789703,523.225098 
	C200.496109,534.331360 208.648911,543.379944 219.077301,544.164978 
	C231.463837,545.097351 244.773987,532.305847 239.214859,517.553406 
	C237.586945,513.233459 238.677643,510.834839 241.735199,507.938507 
	C248.503799,501.526794 254.945602,494.767609 261.458527,488.089508 
	C264.888763,484.572296 268.850555,482.905792 273.874939,482.943268 
	C297.197784,483.117126 320.522247,483.074371 343.846130,483.109192 
	C343.903442,484.421448 343.960754,485.733673 344.004333,487.439697 
	C320.841797,487.853058 297.692535,487.946381 274.544495,487.818420 
	C270.757751,487.797516 267.986572,488.836823 265.362152,491.601288 
	C259.056641,498.243500 252.358429,504.513611 246.076630,511.177002 
	C244.930405,512.392883 244.244766,514.944824 244.638428,516.566467 
	C247.527420,528.467468 243.764633,538.975769 234.064270,545.072266 
	C224.164963,551.293762 212.405655,550.483765 203.357239,542.272888 
	C196.065430,535.656006 194.431885,526.765930 196.472855,517.581116 
	C198.639893,507.829041 205.330246,501.910156 215.150558,500.094543 
	C218.616119,499.453827 222.321228,500.222900 225.868179,499.864868 
	C227.944443,499.655273 230.452896,499.033508 231.857025,497.664185 
	C238.277039,491.403412 244.894409,485.225464 250.454147,478.233185 
	C256.995361,470.006653 265.441498,467.981018 275.091461,468.105713 
	C297.704651,468.397919 320.317993,468.677765 343.387360,468.962982 
z"/>
<path fill="#E6E6E6" opacity="1.000000" stroke="none" 
	d="
M826.040405,528.464478 
	C828.370178,528.128784 830.574707,528.102783 833.058594,528.394653 
	C829.588501,532.227173 825.922241,535.837891 822.038086,539.196777 
	C820.901794,540.179382 819.161377,540.915222 817.671204,540.964905 
	C806.396667,541.341064 795.115906,541.673401 783.836243,541.706116 
	C775.553955,541.730103 767.262390,540.950928 758.990051,541.151733 
	C753.027466,541.296570 748.782532,540.525330 745.523010,534.344910 
	C741.587158,526.882080 732.235474,524.485596 724.279236,527.162537 
	C715.742798,530.034729 709.929382,537.779053 710.043335,546.126648 
	C710.162537,554.861633 716.762329,563.789246 724.658936,565.897278 
	C733.091553,568.148499 743.665466,563.708801 747.766052,555.413757 
	C749.578247,551.747925 751.717957,550.995422 755.398621,551.027832 
	C775.703552,551.206848 796.011475,551.052429 816.316223,551.241455 
	C821.244141,551.287292 825.493408,550.204712 828.899841,546.638611 
	C834.740112,540.524597 840.486877,534.321289 846.272888,528.155457 
	C848.513184,528.122498 850.753540,528.089539 853.413147,528.105103 
	C846.240967,535.846252 838.715515,543.605835 831.027649,551.200928 
	C827.621643,554.565735 823.546021,556.150513 818.486938,556.093445 
	C798.328979,555.866089 778.166260,556.087646 758.007202,555.912964 
	C754.655029,555.883972 752.704468,556.917419 750.881531,559.678467 
	C744.378113,569.528809 733.246704,573.562561 722.740906,570.198181 
	C712.168884,566.812622 704.833191,556.443237 705.103638,545.266907 
	C705.340454,535.476318 713.273499,525.423767 723.371887,522.117676 
	C732.894226,519.000183 743.056946,522.203003 749.196899,530.924866 
	C752.061951,534.994751 755.106445,536.520569 760.179565,536.390747 
	C775.997742,535.985962 791.889160,535.448792 807.638184,536.567566 
	C815.865967,537.152039 821.210938,534.637390 826.040405,528.464478 
z"/>
<path fill="#E6E6E6" opacity="1.000000" stroke="none" 
	d="
M697.413696,846.958008 
	C698.525269,848.308411 699.209717,849.658630 699.435059,851.379028 
	C688.989563,851.751953 678.989380,851.462097 669.024841,851.929932 
	C665.897034,852.076721 662.149902,853.511902 659.915955,855.645203 
	C651.392639,863.784546 643.359131,872.437805 635.170959,880.926514 
	C633.288330,882.878296 631.757019,884.093445 628.390747,883.352417 
	C624.137939,882.416199 619.354431,882.496887 615.068237,883.405151 
	C606.932007,885.129272 601.744507,892.977783 601.770142,902.079163 
	C601.796814,911.548218 607.690735,919.137329 616.983887,921.669067 
	C624.630066,923.752075 633.997437,919.620361 638.397400,912.650879 
	C643.144592,905.131470 641.676880,897.679626 638.255798,889.541687 
	C646.395569,881.657898 654.554993,873.822388 662.630493,865.901428 
	C665.992920,862.603271 669.774658,860.866272 674.610779,860.941895 
	C684.754272,861.100464 694.902771,860.936340 705.049255,860.904724 
	C705.959778,862.381409 706.870300,863.858093 707.814209,865.667175 
	C696.859070,865.966003 685.864685,865.730835 674.885986,866.044434 
	C672.235046,866.120300 669.064331,867.389221 667.116272,869.179688 
	C660.256775,875.483826 653.855408,882.284241 647.210938,888.826111 
	C645.456909,890.553223 644.606018,891.888611 645.451111,894.779236 
	C648.852417,906.413818 644.678040,917.099915 634.962402,923.162781 
	C625.103088,929.315308 613.208374,928.431030 604.268372,920.205994 
	C597.033447,913.549805 595.413391,904.668762 597.491516,895.490601 
	C599.697021,885.749878 606.397583,879.861755 616.221313,878.083984 
	C619.689209,877.456360 623.389709,878.226013 626.933105,877.861572 
	C629.004333,877.648621 631.497986,876.989014 632.902100,875.612793 
	C639.779907,868.871399 646.710999,862.123230 652.929810,854.789429 
	C658.278137,848.482117 664.904236,846.220520 672.638733,846.262573 
	C680.755676,846.306641 688.870728,846.710938 697.413696,846.958008 
z"/>
<path fill="#E4E4E4" opacity="1.000000" stroke="none" 
	d="
M286.798828,805.132507 
	C288.005676,806.057495 288.959381,807.208435 289.842407,808.961426 
	C284.026276,815.560181 278.244934,821.523132 272.553680,827.570801 
	C270.425293,829.832581 268.619354,830.961670 264.927826,830.285461 
	C258.659515,829.137085 251.948181,828.617554 246.296173,833.017578 
	C239.198486,838.542969 236.780243,848.737671 240.437775,857.294861 
	C243.780197,865.114807 252.242081,869.961182 260.946411,869.040649 
	C269.489044,868.137207 277.295746,860.784790 278.042938,851.729919 
	C278.442322,846.889954 277.059204,841.902832 276.427094,836.527100 
	C282.924744,829.990906 289.959381,822.914551 296.994080,815.838318 
	C298.046173,816.804871 299.098206,817.771301 300.379272,818.948486 
	C295.135559,824.738281 289.708801,830.363708 284.163330,835.869629 
	C282.387329,837.632996 281.661438,838.993042 282.488556,841.843384 
	C285.858917,853.458069 281.644135,864.162109 271.911987,870.210999 
	C262.073792,876.325928 250.085892,875.396729 241.217621,867.166321 
	C234.016449,860.483276 232.398743,851.603638 234.504623,842.430420 
	C236.738068,832.701599 243.427902,826.806030 253.277237,825.074097 
	C256.750946,824.463318 260.439178,825.182007 263.992767,824.872375 
	C265.924561,824.704041 268.285431,824.170776 269.581787,822.908020 
	C275.407043,817.233398 280.920044,811.238159 286.798828,805.132507 
z"/>
<path fill="#E9E9E9" opacity="1.000000" stroke="none" 
	d="
M364.839874,425.251099 
	C363.744965,427.001892 362.650055,428.752686 361.354126,430.746826 
	C355.328308,430.910431 349.496765,430.655487 343.683411,430.876923 
	C342.268555,430.930786 340.505249,432.251617 339.593872,433.496399 
	C330.582306,445.804291 319.396179,449.163788 307.323456,443.000458 
	C297.918610,438.199158 292.049011,427.930328 293.152100,418.207825 
	C294.269867,408.356049 302.363403,398.776703 311.650909,396.313019 
	C321.465057,393.709625 332.795044,397.904694 338.659454,406.950043 
	C340.743835,410.165039 342.882599,411.211395 346.565582,411.093262 
	C355.055908,410.820923 363.561188,411.014496 372.525299,411.092957 
	C372.187958,412.673584 371.385742,414.180298 369.852112,415.799042 
	C360.309784,415.904510 351.494965,415.744965 342.689819,415.968384 
	C339.269073,416.055145 337.569153,414.979462 335.891357,411.855530 
	C331.729950,404.107269 324.967316,400.176758 315.971649,400.828674 
	C307.844055,401.417694 302.705170,406.019440 299.775757,413.365051 
	C296.918030,420.530731 297.736511,427.419556 302.679016,433.223267 
	C307.780243,439.213379 314.407562,441.922729 322.537506,440.257019 
	C329.185730,438.894867 332.822815,434.262451 336.234894,429.030182 
	C337.130829,427.656281 339.028809,426.191498 340.550934,426.094666 
	C348.632446,425.580719 356.740814,425.489014 364.839874,425.251099 
z"/>
<path fill="#E8E8E8" opacity="1.000000" stroke="none" 
	d="
M284.526184,752.092163 
	C284.381500,753.541931 283.772247,754.917603 282.547485,756.592896 
	C275.942108,756.892456 269.942200,756.682922 263.966248,756.971008 
	C260.349396,757.145325 258.576172,755.901672 256.820770,752.634277 
	C249.311935,738.657898 230.307327,737.887207 222.284149,750.994385 
	C216.889740,759.807068 219.024139,771.876099 226.997604,777.646545 
	C235.804688,784.020264 247.722351,783.894409 253.019089,775.162781 
	C258.111206,766.768311 264.482941,766.340576 272.356323,766.933105 
	C274.838043,767.119995 277.345673,766.962646 279.841431,766.962830 
	C279.869598,768.292297 279.897766,769.621765 279.884827,771.350708 
	C277.847595,771.750610 275.833099,771.926880 273.858673,771.720215 
	C266.630096,770.963501 261.285309,772.378174 256.402374,779.163757 
	C249.068741,789.355103 233.187042,789.466492 223.591125,780.934753 
	C212.092834,770.711609 210.871918,756.586609 220.510498,745.294128 
	C231.192627,732.779053 250.267059,733.940063 259.681549,747.995544 
	C261.826813,751.198364 263.953827,752.271606 267.597748,752.080322 
	C273.071716,751.793030 278.572296,752.013550 284.526184,752.092163 
z"/>
<path fill="#E8E8E8" opacity="1.000000" stroke="none" 
	d="
M726.548462,901.914307 
	C727.976807,903.253357 728.957581,904.667847 729.480591,906.481262 
	C726.695007,906.884338 724.333984,906.639343 722.045898,906.943359 
	C716.820740,907.637695 712.952759,906.565247 710.708252,901.080688 
	C709.797119,898.854370 707.317139,897.126648 705.268921,895.534973 
	C697.861023,889.778137 686.026489,890.687134 680.000854,897.322693 
	C672.993713,905.039124 672.367065,917.315674 678.719055,924.397888 
	C687.291382,933.955688 703.183289,936.150024 711.952209,920.236694 
	C713.369019,917.665649 714.907959,916.903503 717.710449,916.893127 
	C723.585022,916.871338 729.458008,916.393555 735.331604,916.103027 
	C736.182800,917.744507 737.033997,919.386047 737.889282,921.348694 
	C732.402588,921.697205 726.907104,921.870422 721.422974,921.692810 
	C718.506470,921.598328 716.708801,922.305786 714.984070,924.981873 
	C709.313965,933.779663 701.092041,938.520142 690.545105,936.593811 
	C680.376770,934.736572 673.398621,928.315552 670.116516,918.390930 
	C666.906128,908.682922 671.572083,896.512207 680.539734,890.476624 
	C688.908020,884.844421 701.897461,885.717346 709.680603,892.484619 
	C711.058044,893.682190 712.806274,894.834412 713.476440,896.396667 
	C716.020081,902.325806 720.824768,902.557129 726.548462,901.914307 
z"/>
<path fill="#C8C8C8" opacity="1.000000" stroke="none" 
	d="
M483.009827,719.257446 
	C483.455780,718.629761 483.887115,718.344666 484.590424,718.028564 
	C484.963593,720.106140 485.064819,722.214661 485.200867,725.048950 
	C483.234314,725.048950 481.525787,725.048950 479.376465,724.946045 
	C480.288788,723.095398 481.641998,721.347717 483.009827,719.257446 
z"/>
<path fill="#000000" opacity="1.000000" stroke="none" 
	d="
M483.907776,713.550293 
	C460.683044,714.039551 437.521393,713.990967 414.361481,714.168579 
	C409.005951,714.209656 404.790405,712.454163 401.077484,708.689026 
	C379.596436,686.905457 357.990906,665.244324 336.562347,643.409485 
	C331.611420,638.364685 326.182526,636.263123 319.165314,637.817078 
	C316.462708,638.415649 313.523468,637.960022 310.692047,637.960510 
	C287.363708,637.964539 264.034943,638.033325 240.707611,637.881592 
	C237.460190,637.860535 235.727585,638.803833 234.126312,641.675964 
	C229.066315,650.751709 219.855927,654.667480 210.722412,652.085999 
	C201.947891,649.606079 196.344849,641.159668 196.801636,631.101074 
	C197.165283,623.093994 202.580414,616.388855 210.817444,613.746521 
	C218.423767,611.306396 227.875671,613.464905 231.510361,620.332458 
	C235.311981,627.515503 240.469299,628.222351 247.513107,628.132812 
	C274.336334,627.791687 301.166962,628.071411 327.993622,627.915527 
	C332.171021,627.891235 335.226288,629.207642 338.110260,632.109924 
	C358.663422,652.793457 379.297333,673.396729 399.947388,693.983582 
	C402.882355,696.909546 405.777496,700.010132 409.192871,702.272217 
	C411.485168,703.790344 414.657379,704.623413 417.445465,704.647278 
	C439.272461,704.833862 461.101715,704.750610 483.385925,704.750000 
	C483.884857,707.531128 483.928162,710.312866 483.907776,713.550293 
M206.038605,634.199402 
	C207.924042,641.253540 212.305298,644.166321 219.209854,642.956055 
	C224.341660,642.056580 227.638580,636.954224 226.996902,630.904968 
	C226.472183,625.958313 221.536652,621.967773 216.116669,622.107971 
	C210.471680,622.254028 206.314423,626.891296 206.038605,634.199402 
z"/>
<path fill="#000000" opacity="1.000000" stroke="none" 
	d="
M479.917908,553.746582 
	C473.691101,559.309814 467.265228,564.187561 461.456818,569.714233 
	C453.876343,576.927002 447.020111,584.908569 439.336334,592.000305 
	C437.100494,594.063782 433.105194,595.099426 429.910126,595.112915 
	C383.943176,595.307007 337.974976,595.303406 292.007782,595.144409 
	C288.002197,595.130554 285.916168,596.265076 284.170471,599.897400 
	C280.039764,608.492493 271.485321,612.253418 262.352966,610.086670 
	C253.615112,608.013550 247.186584,600.320190 246.997803,591.710388 
	C246.787994,582.140686 252.950623,573.486206 261.681671,571.089111 
	C269.675690,568.894348 278.168732,571.969971 283.007965,580.059570 
	C285.980682,585.029053 289.409119,586.163818 294.880798,586.132874 
	C338.015839,585.888977 381.153046,585.935486 424.289001,586.073792 
	C429.846283,586.091553 434.119629,584.382568 437.972015,580.419250 
	C448.301575,569.791992 458.873962,559.401245 469.301239,548.868469 
	C472.612335,545.523865 476.342407,543.398865 481.633820,544.004028 
	C481.365723,547.178467 480.679596,550.264038 479.917908,553.746582 
M269.073944,601.007385 
	C278.028717,598.862061 279.798523,588.951843 275.350037,584.040039 
	C271.978516,580.317322 266.468201,578.991760 262.255371,581.081482 
	C257.921021,583.231445 255.489258,588.179871 256.581146,592.627930 
	C257.984192,598.343567 261.630096,600.974670 269.073944,601.007385 
z"/>
<path fill="#000000" opacity="1.000000" stroke="none" 
	d="
M497.305237,504.978333 
	C488.667511,505.147095 480.313904,504.712921 472.037231,505.322968 
	C468.946411,505.550812 465.460938,507.621552 463.138641,509.868317 
	C451.290527,521.330933 439.580536,532.951294 428.213135,544.888672 
	C423.489532,549.849121 418.528961,551.662964 411.645203,551.429565 
	C395.175262,550.871460 378.673615,551.249146 362.184753,551.249023 
	C352.024933,551.248962 341.862183,551.387756 331.706970,551.171936 
	C328.261871,551.098694 326.377228,551.980347 325.036316,555.394836 
	C322.031311,563.047058 312.109314,567.863770 304.434235,566.446960 
	C291.144928,563.993591 287.337097,554.606018 287.156464,546.672119 
	C286.948975,537.560669 294.076752,529.022339 302.527069,527.071106 
	C310.819550,525.156311 320.808655,529.391174 324.701508,537.494568 
	C326.611176,541.469788 328.941254,542.073486 332.718597,542.056458 
	C358.700531,541.940002 384.683533,541.928406 410.665344,542.057312 
	C415.307770,542.080322 418.880768,540.745605 422.169189,537.373169 
	C434.376984,524.853638 446.859406,512.602112 459.103455,500.117371 
	C462.587891,496.564331 466.522644,494.934814 471.456696,494.999329 
	C481.281738,495.127808 491.109619,495.037292 501.392029,495.036804 
	C500.438446,498.287628 499.029175,501.538910 497.305237,504.978333 
M317.505829,550.547180 
	C317.667206,549.075500 318.019928,547.595337 317.955048,546.133667 
	C317.738892,541.267029 314.808563,538.103333 310.584717,536.544922 
	C306.341858,534.979492 302.312500,536.548340 299.313202,539.723755 
	C296.277679,542.937500 295.715118,546.763855 297.587128,551.030640 
	C301.311157,559.518860 313.180908,558.748535 317.505829,550.547180 
z"/>
<path fill="#000000" opacity="1.000000" stroke="none" 
	d="
M668.844177,793.916809 
	C661.259583,801.289673 653.406494,808.028931 646.147766,815.356812 
	C631.110046,830.537781 616.302917,845.950623 601.596863,861.453979 
	C597.917358,865.332947 594.128723,867.196106 588.592468,867.151733 
	C560.766846,866.928772 532.936340,867.280273 505.111084,867.034302 
	C500.364136,866.992310 497.698273,868.355469 495.458252,872.381348 
	C491.406494,879.663269 484.748047,883.190063 476.595001,882.097534 
	C468.750885,881.046387 463.349274,876.247070 460.621368,868.547791 
	C458.132599,861.523621 461.417236,850.923218 467.620209,846.914673 
	C475.994476,841.502991 484.840057,841.918701 490.999451,848.226013 
	C493.283234,850.564636 494.961395,853.516113 497.341248,855.730835 
	C498.676514,856.973450 500.879242,857.909668 502.694794,857.915833 
	C527.356079,857.999817 552.018127,857.896912 576.679932,857.838745 
	C581.217407,857.828003 585.802612,858.197449 590.273987,857.646729 
	C592.827515,857.332153 595.715149,856.054016 597.560791,854.281372 
	C607.646667,844.594910 617.585022,834.745789 627.324341,824.710205 
	C637.114441,814.622253 646.594238,804.233643 656.249084,794.013733 
	C658.829163,791.282715 661.552185,788.686707 664.526123,785.891724 
	C666.176758,788.353027 667.510803,790.951355 668.844177,793.916809 
M475.392334,873.585938 
	C476.545929,873.686951 477.699371,873.873047 478.853149,873.875000 
	C485.759918,873.886719 490.025940,869.688538 490.005493,862.950928 
	C489.983826,855.805542 486.267120,852.194641 478.949036,852.209290 
	C471.528625,852.224060 468.262878,855.615051 468.147095,863.004883 
	C468.068939,867.992676 470.879181,870.836914 475.392334,873.585938 
z"/>
<path fill="#000000" opacity="1.000000" stroke="none" 
	d="
M296.065521,738.095947 
	C283.417755,725.896851 271.182312,713.394348 258.513428,701.347656 
	C256.036835,698.992676 251.894226,697.230713 248.495132,697.188354 
	C221.673187,696.853455 194.844925,697.055054 168.019424,696.926331 
	C165.103958,696.912354 163.577118,697.872864 162.263641,700.360352 
	C157.513580,709.356079 148.692444,713.823059 139.807236,711.979004 
	C131.493790,710.253723 124.661270,702.681274 124.208755,693.088501 
	C123.835617,685.178711 127.358757,678.696228 134.639572,674.683350 
	C141.110825,671.116699 150.613480,671.539978 155.927841,676.300293 
	C158.559631,678.657715 160.293381,681.989990 162.673737,684.667664 
	C163.815720,685.952271 165.514572,687.621765 166.963303,687.623779 
	C195.269516,687.663208 223.577133,687.332031 251.881180,687.535767 
	C255.432251,687.561340 259.801331,689.291504 262.364075,691.731201 
	C274.910309,703.674683 286.964966,716.134094 299.218597,728.385925 
	C300.498566,729.665771 301.944244,730.779968 303.645966,732.075684 
	C301.428009,734.104309 298.877136,736.028137 296.065521,738.095947 
M135.155518,686.816101 
	C132.695877,692.659912 133.535599,697.564819 137.493912,700.475525 
	C141.831696,703.665222 147.097000,703.748901 150.746063,700.686157 
	C155.844666,696.406738 156.630386,689.966125 152.415604,685.441711 
	C148.352005,681.079590 139.563812,679.971863 135.155518,686.816101 
z"/>
<path fill="#000000" opacity="1.000000" stroke="none" 
	d="
M343.780792,482.696777 
	C320.522247,483.074371 297.197784,483.117126 273.874939,482.943268 
	C268.850555,482.905792 264.888763,484.572296 261.458527,488.089508 
	C254.945602,494.767609 248.503799,501.526794 241.735199,507.938507 
	C238.677643,510.834839 237.586945,513.233459 239.214859,517.553406 
	C244.773987,532.305847 231.463837,545.097351 219.077301,544.164978 
	C208.648911,543.379944 200.496109,534.331360 200.789703,523.225098 
	C201.078125,512.313354 208.576675,504.776154 219.346497,504.796661 
	C222.461639,504.802582 225.601624,505.728210 228.680618,505.515228 
	C230.531921,505.387177 232.678238,504.264923 234.022247,502.920105 
	C242.366989,494.570435 250.336319,485.836853 258.865601,477.686249 
	C261.105103,475.546234 264.871796,473.955322 267.959167,473.917664 
	C292.613220,473.616882 317.272583,473.750397 342.385925,473.750244 
	C343.132843,476.594513 343.424164,479.439453 343.780792,482.696777 
M210.397476,527.593140 
	C211.235977,528.800842 211.962891,530.107849 212.933090,531.198364 
	C216.342300,535.030273 220.442566,535.486572 224.962845,533.406738 
	C229.488403,531.324402 231.571884,527.517029 231.004364,522.126282 
	C230.513672,517.465332 227.572128,514.732056 223.326965,513.512817 
	C215.996170,511.407227 209.737625,517.816345 210.397476,527.593140 
z"/>
<path fill="#000000" opacity="1.000000" stroke="none" 
	d="
M845.792358,528.092163 
	C840.486877,534.321289 834.740112,540.524597 828.899841,546.638611 
	C825.493408,550.204712 821.244141,551.287292 816.316223,551.241455 
	C796.011475,551.052429 775.703552,551.206848 755.398621,551.027832 
	C751.717957,550.995422 749.578247,551.747925 747.766052,555.413757 
	C743.665466,563.708801 733.091553,568.148499 724.658936,565.897278 
	C716.762329,563.789246 710.162537,554.861633 710.043335,546.126648 
	C709.929382,537.779053 715.742798,530.034729 724.279236,527.162537 
	C732.235474,524.485596 741.587158,526.882080 745.523010,534.344910 
	C748.782532,540.525330 753.027466,541.296570 758.990051,541.151733 
	C767.262390,540.950928 775.553955,541.730103 783.836243,541.706116 
	C795.115906,541.673401 806.396667,541.341064 817.671204,540.964905 
	C819.161377,540.915222 820.901794,540.179382 822.038086,539.196777 
	C825.922241,535.837891 829.588501,532.227173 833.468018,528.437500 
	C837.502747,528.117859 841.407288,528.073364 845.792358,528.092163 
M724.588318,555.036438 
	C730.491272,559.700439 739.831177,555.975403 740.921814,547.435730 
	C741.538696,542.605774 738.422485,538.026306 733.633118,536.342896 
	C728.978333,534.706787 723.690186,536.655762 721.139587,540.947388 
	C718.575134,545.262268 719.629700,550.606628 724.588318,555.036438 
z"/>
<path fill="#000000" opacity="1.000000" stroke="none" 
	d="
M705.016846,860.546997 
	C694.902771,860.936340 684.754272,861.100464 674.610779,860.941895 
	C669.774658,860.866272 665.992920,862.603271 662.630493,865.901428 
	C654.554993,873.822388 646.395569,881.657898 638.255798,889.541687 
	C641.676880,897.679626 643.144592,905.131470 638.397400,912.650879 
	C633.997437,919.620361 624.630066,923.752075 616.983887,921.669067 
	C607.690735,919.137329 601.796814,911.548218 601.770142,902.079163 
	C601.744507,892.977783 606.932007,885.129272 615.068237,883.405151 
	C619.354431,882.496887 624.137939,882.416199 628.390747,883.352417 
	C631.757019,884.093445 633.288330,882.878296 635.170959,880.926514 
	C643.359131,872.437805 651.392639,863.784546 659.915955,855.645203 
	C662.149902,853.511902 665.897034,852.076721 669.024841,851.929932 
	C678.989380,851.462097 688.989563,851.751953 699.437927,851.711304 
	C701.594727,854.512085 703.289612,857.350708 705.016846,860.546997 
M631.539062,897.492981 
	C631.136536,896.967834 630.720825,896.452209 630.333496,895.916077 
	C627.178772,891.549377 623.393677,890.331421 618.361816,892.071411 
	C613.557678,893.732666 610.789124,897.590454 611.016357,902.546570 
	C611.248291,907.604126 614.034668,910.730225 618.781799,912.147705 
	C626.628357,914.490479 632.609497,908.084961 631.539062,897.492981 
z"/>
<path fill="#000000" opacity="1.000000" stroke="none" 
	d="
M364.952393,424.903412 
	C356.740814,425.489014 348.632446,425.580719 340.550934,426.094666 
	C339.028809,426.191498 337.130829,427.656281 336.234894,429.030182 
	C332.822815,434.262451 329.185730,438.894867 322.537506,440.257019 
	C314.407562,441.922729 307.780243,439.213379 302.679016,433.223267 
	C297.736511,427.419556 296.918030,420.530731 299.775757,413.365051 
	C302.705170,406.019440 307.844055,401.417694 315.971649,400.828674 
	C324.967316,400.176758 331.729950,404.107269 335.891357,411.855530 
	C337.569153,414.979462 339.269073,416.055145 342.689819,415.968384 
	C351.494965,415.744965 360.309784,415.904510 369.587280,416.000793 
	C368.390808,418.912231 366.727875,421.733978 364.952393,424.903412 
M307.960602,421.351440 
	C308.729828,428.034180 312.735535,431.490997 319.175964,431.029968 
	C324.647675,430.638306 329.024445,425.980713 328.993530,420.582550 
	C328.960846,414.883820 324.292206,410.140015 318.682587,410.105560 
	C312.362091,410.066742 308.348358,413.962250 307.960602,421.351440 
z"/>
<path fill="#000000" opacity="1.000000" stroke="none" 
	d="
M296.861389,815.543396 
	C289.959381,822.914551 282.924744,829.990906 276.427094,836.527100 
	C277.059204,841.902832 278.442322,846.889954 278.042938,851.729919 
	C277.295746,860.784790 269.489044,868.137207 260.946411,869.040649 
	C252.242081,869.961182 243.780197,865.114807 240.437775,857.294861 
	C236.780243,848.737671 239.198486,838.542969 246.296173,833.017578 
	C251.948181,828.617554 258.659515,829.137085 264.927826,830.285461 
	C268.619354,830.961670 270.425293,829.832581 272.553680,827.570801 
	C278.244934,821.523132 284.026276,815.560181 289.956055,809.276489 
	C292.336517,811.075806 294.532654,813.162170 296.861389,815.543396 
M259.884888,859.362610 
	C260.967194,859.005920 262.108215,858.769043 263.122009,858.272461 
	C268.417297,855.678955 270.787567,849.561523 268.526184,844.488159 
	C266.203857,839.278076 260.418488,837.034302 254.861252,839.188293 
	C250.113693,841.028503 247.456451,845.448303 248.019028,850.568970 
	C248.564651,855.535400 252.765610,858.969604 259.884888,859.362610 
z"/>
<path fill="#000000" opacity="1.000000" stroke="none" 
	d="
M280.025330,766.625244 
	C277.345673,766.962646 274.838043,767.119995 272.356323,766.933105 
	C264.482941,766.340576 258.111206,766.768311 253.019089,775.162781 
	C247.722351,783.894409 235.804688,784.020264 226.997604,777.646545 
	C219.024139,771.876099 216.889740,759.807068 222.284149,750.994385 
	C230.307327,737.887207 249.311935,738.657898 256.820770,752.634277 
	C258.576172,755.901672 260.349396,757.145325 263.966248,756.971008 
	C269.942200,756.682922 275.942108,756.892456 282.387573,756.891968 
	C281.965210,760.023560 281.087250,763.155640 280.025330,766.625244 
M241.886932,771.910400 
	C242.782623,771.498962 243.712982,771.148865 244.568176,770.665710 
	C249.021729,768.149902 251.125900,762.926392 249.537674,758.420227 
	C247.789642,753.460632 242.969788,750.431763 237.961197,751.145325 
	C231.881073,752.011597 228.444794,756.630554 228.965073,763.237732 
	C229.412079,768.914246 233.768219,772.067383 241.886932,771.910400 
z"/>
<path fill="#000000" opacity="1.000000" stroke="none" 
	d="
M735.189697,915.759033 
	C729.458008,916.393555 723.585022,916.871338 717.710449,916.893127 
	C714.907959,916.903503 713.369019,917.665649 711.952209,920.236694 
	C703.183289,936.150024 687.291382,933.955688 678.719055,924.397888 
	C672.367065,917.315674 672.993713,905.039124 680.000854,897.322693 
	C686.026489,890.687134 697.861023,889.778137 705.268921,895.534973 
	C707.317139,897.126648 709.797119,898.854370 710.708252,901.080688 
	C712.952759,906.565247 716.820740,907.637695 722.045898,906.943359 
	C724.333984,906.639343 726.695007,906.884338 729.484619,906.822083 
	C731.646790,909.647705 733.347290,912.531372 735.189697,915.759033 
M686.135193,904.797241 
	C685.698486,905.493469 685.169189,906.148804 684.839844,906.892578 
	C682.529907,912.109619 684.248474,918.078247 688.813171,920.830078 
	C692.735718,923.194763 699.454651,922.076111 702.455505,918.558777 
	C706.061218,914.332764 705.815796,908.453735 701.852051,904.105042 
	C698.149780,900.043213 692.971375,900.091187 686.135193,904.797241 
z"/>
<path fill="#000000" opacity="1.000000" stroke="none" 
	d="
M478.080933,561.881775 
	C477.883911,561.340820 478.028961,560.782349 478.509583,560.110352 
	C478.704437,560.619385 478.563721,561.241760 478.080933,561.881775 
z"/>
<path fill="#E7E7E7" opacity="1.000000" stroke="none" 
	d="
M206.021851,633.793213 
	C206.314423,626.891296 210.471680,622.254028 216.116669,622.107971 
	C221.536652,621.967773 226.472183,625.958313 226.996902,630.904968 
	C227.638580,636.954224 224.341660,642.056580 219.209854,642.956055 
	C212.305298,644.166321 207.924042,641.253540 206.021851,633.793213 
M218.047470,627.259949 
	C216.036560,628.015015 213.377975,628.216370 212.155914,629.645874 
	C209.936371,632.242065 210.333817,635.771545 213.596634,637.097473 
	C215.635239,637.925842 219.595795,637.570923 220.807693,636.144531 
	C223.286392,633.227112 222.892258,629.653870 218.047470,627.259949 
z"/>
<path fill="#E5E5E5" opacity="1.000000" stroke="none" 
	d="
M268.656769,601.024353 
	C261.630096,600.974670 257.984192,598.343567 256.581146,592.627930 
	C255.489258,588.179871 257.921021,583.231445 262.255371,581.081482 
	C266.468201,578.991760 271.978516,580.317322 275.350037,584.040039 
	C279.798523,588.951843 278.028717,598.862061 268.656769,601.024353 
M267.249847,585.023926 
	C263.715240,584.760559 261.950073,587.123779 261.481232,589.935974 
	C261.227722,591.456604 262.371277,593.826416 263.653046,594.860962 
	C266.484314,597.146179 269.538879,596.882324 271.802399,593.672852 
	C274.010071,590.542664 272.876465,588.111938 267.249847,585.023926 
z"/>
<path fill="#E6E6E6" opacity="1.000000" stroke="none" 
	d="
M317.278870,550.871155 
	C313.180908,558.748535 301.311157,559.518860 297.587128,551.030640 
	C295.715118,546.763855 296.277679,542.937500 299.313202,539.723755 
	C302.312500,536.548340 306.341858,534.979492 310.584717,536.544922 
	C314.808563,538.103333 317.738892,541.267029 317.955048,546.133667 
	C318.019928,547.595337 317.667206,549.075500 317.278870,550.871155 
M309.070496,552.024719 
	C312.016754,550.519592 314.173615,547.999268 312.429901,544.998596 
	C311.313568,543.077576 308.089020,541.211853 306.005920,541.407898 
	C304.454834,541.553772 302.245636,544.955933 302.054260,547.064514 
	C301.708252,550.876465 304.555481,552.403381 309.070496,552.024719 
z"/>
<path fill="#D4D4D4" opacity="1.000000" stroke="none" 
	d="
M475.088684,873.330688 
	C470.879181,870.836914 468.068939,867.992676 468.147095,863.004883 
	C468.262878,855.615051 471.528625,852.224060 478.949036,852.209290 
	C486.267120,852.194641 489.983826,855.805542 490.005493,862.950928 
	C490.025940,869.688538 485.759918,873.886719 478.853149,873.875000 
	C477.699371,873.873047 476.545929,873.686951 475.088684,873.330688 
M474.812408,860.369995 
	C475.107330,862.428223 474.924927,864.759888 475.885651,866.436646 
	C476.417328,867.364441 479.231659,867.920837 480.357239,867.348083 
	C481.963562,866.530701 483.749603,864.638733 483.990540,862.991028 
	C484.206665,861.513000 482.693878,858.640503 481.486969,858.361816 
	C479.646027,857.936768 477.411346,859.216919 474.812408,860.369995 
z"/>
<path fill="#E6E6E6" opacity="1.000000" stroke="none" 
	d="
M135.367279,686.501953 
	C139.563812,679.971863 148.352005,681.079590 152.415604,685.441711 
	C156.630386,689.966125 155.844666,696.406738 150.746063,700.686157 
	C147.097000,703.748901 141.831696,703.665222 137.493912,700.475525 
	C133.535599,697.564819 132.695877,692.659912 135.367279,686.501953 
M148.071381,688.273804 
	C143.735916,685.948853 139.924225,686.584656 139.346313,690.257751 
	C139.010971,692.389160 140.103745,695.461792 141.664993,696.926697 
	C142.731232,697.927063 146.195908,697.610291 147.739182,696.593567 
	C150.559540,694.735596 150.711563,691.719727 148.071381,688.273804 
z"/>
<path fill="#E6E6E6" opacity="1.000000" stroke="none" 
	d="
M210.269531,527.208984 
	C209.737625,517.816345 215.996170,511.407227 223.326965,513.512817 
	C227.572128,514.732056 230.513672,517.465332 231.004364,522.126282 
	C231.571884,527.517029 229.488403,531.324402 224.962845,533.406738 
	C220.442566,535.486572 216.342300,535.030273 212.933090,531.198364 
	C211.962891,530.107849 211.235977,528.800842 210.269531,527.208984 
M215.704758,521.413696 
	C213.524887,525.160034 215.687057,527.801819 218.695465,528.812988 
	C220.546326,529.435059 224.314041,528.414612 225.141968,526.953552 
	C226.096359,525.269409 225.540649,521.699707 224.254791,519.993042 
	C221.678833,516.573975 218.573029,518.121521 215.704758,521.413696 
z"/>
<path fill="#E7E7E7" opacity="1.000000" stroke="none" 
	d="
M724.226624,554.897522 
	C719.629700,550.606628 718.575134,545.262268 721.139587,540.947388 
	C723.690186,536.655762 728.978333,534.706787 733.633118,536.342896 
	C738.422485,538.026306 741.538696,542.605774 740.921814,547.435730 
	C739.831177,555.975403 730.491272,559.700439 724.226624,554.897522 
M725.672913,543.328735 
	C723.728943,547.207703 724.981995,550.347839 728.702820,551.772400 
	C731.847473,552.976257 734.872375,551.252747 735.513672,547.949646 
	C735.871704,546.105652 734.795410,542.615479 733.508667,542.127808 
	C731.367981,541.316467 728.538208,542.323608 725.672913,543.328735 
z"/>
<path fill="#E6E6E6" opacity="1.000000" stroke="none" 
	d="
M631.660278,897.883423 
	C632.609497,908.084961 626.628357,914.490479 618.781799,912.147705 
	C614.034668,910.730225 611.248291,907.604126 611.016357,902.546570 
	C610.789124,897.590454 613.557678,893.732666 618.361816,892.071411 
	C623.393677,890.331421 627.178772,891.549377 630.333496,895.916077 
	C630.720825,896.452209 631.136536,896.967834 631.660278,897.883423 
M616.240417,900.045166 
	C615.939514,904.725037 619.047729,908.560913 622.549744,907.321289 
	C624.361816,906.679932 626.901855,904.474609 626.855103,903.049866 
	C626.784668,900.903564 625.195862,898.238464 623.425415,896.843567 
	C620.421021,894.476501 618.554871,897.436707 616.240417,900.045166 
z"/>
<path fill="#E7E7E7" opacity="1.000000" stroke="none" 
	d="
M307.960571,420.931610 
	C308.348358,413.962250 312.362091,410.066742 318.682587,410.105560 
	C324.292206,410.140015 328.960846,414.883820 328.993530,420.582550 
	C329.024445,425.980713 324.647675,430.638306 319.175964,431.029968 
	C312.735535,431.490997 308.729828,428.034180 307.960571,420.931610 
M313.736816,417.524109 
	C312.200409,420.506104 312.167999,423.700684 315.319366,425.093933 
	C317.201019,425.925781 320.514374,425.468414 322.238403,424.251129 
	C324.826172,422.424042 324.661987,419.156647 322.421173,416.880768 
	C319.927490,414.347961 316.971924,413.897888 313.736816,417.524109 
z"/>
<path fill="#E6E6E6" opacity="1.000000" stroke="none" 
	d="
M259.534668,859.529480 
	C252.765610,858.969604 248.564651,855.535400 248.019028,850.568970 
	C247.456451,845.448303 250.113693,841.028503 254.861252,839.188293 
	C260.418488,837.034302 266.203857,839.278076 268.526184,844.488159 
	C270.787567,849.561523 268.417297,855.678955 263.122009,858.272461 
	C262.108215,858.769043 260.967194,859.005920 259.534668,859.529480 
M255.860428,853.618774 
	C259.195404,855.726868 262.425873,854.655579 263.533569,851.549133 
	C264.240021,849.567871 262.966125,846.100708 261.423401,844.279785 
	C259.099670,841.537109 256.133331,843.366028 254.278107,845.458313 
	C251.945953,848.088440 252.422501,850.893494 255.860428,853.618774 
z"/>
<path fill="#E7E7E7" opacity="1.000000" stroke="none" 
	d="
M241.476410,771.953552 
	C233.768219,772.067383 229.412079,768.914246 228.965073,763.237732 
	C228.444794,756.630554 231.881073,752.011597 237.961197,751.145325 
	C242.969788,750.431763 247.789642,753.460632 249.537674,758.420227 
	C251.125900,762.926392 249.021729,768.149902 244.568176,770.665710 
	C243.712982,771.148865 242.782623,771.498962 241.476410,771.953552 
M244.968811,762.299377 
	C243.879196,756.967834 239.909164,754.133484 236.791138,756.798645 
	C235.215332,758.145691 234.081085,760.963135 234.208862,763.025085 
	C234.299072,764.480835 236.627533,766.446899 238.343414,767.012878 
	C241.556076,768.072632 243.557526,765.941040 244.968811,762.299377 
z"/>
<path fill="#E7E7E7" opacity="1.000000" stroke="none" 
	d="
M686.407837,904.521362 
	C692.971375,900.091187 698.149780,900.043213 701.852051,904.105042 
	C705.815796,908.453735 706.061218,914.332764 702.455505,918.558777 
	C699.454651,922.076111 692.735718,923.194763 688.813171,920.830078 
	C684.248474,918.078247 682.529907,912.109619 684.839844,906.892578 
	C685.169189,906.148804 685.698486,905.493469 686.407837,904.521362 
M697.471924,916.291992 
	C700.675476,912.156250 700.744629,909.177368 697.531067,907.052734 
	C694.574768,905.098328 691.599792,905.452026 689.922363,908.546082 
	C689.061890,910.133301 688.800354,913.503479 689.750610,914.300598 
	C691.551147,915.811096 694.419983,916.048035 697.471924,916.291992 
z"/>
<path fill="#000000" opacity="1.000000" stroke="none" 
	d="
M218.389297,627.462097 
	C222.892258,629.653870 223.286392,633.227112 220.807693,636.144531 
	C219.595795,637.570923 215.635239,637.925842 213.596634,637.097473 
	C210.333817,635.771545 209.936371,632.242065 212.155914,629.645874 
	C213.377975,628.216370 216.036560,628.015015 218.389297,627.462097 
z"/>
<path fill="#000000" opacity="1.000000" stroke="none" 
	d="
M267.619141,585.130127 
	C272.876465,588.111938 274.010071,590.542664 271.802399,593.672852 
	C269.538879,596.882324 266.484314,597.146179 263.653046,594.860962 
	C262.371277,593.826416 261.227722,591.456604 261.481232,589.935974 
	C261.950073,587.123779 263.715240,584.760559 267.619141,585.130127 
z"/>
<path fill="#000000" opacity="1.000000" stroke="none" 
	d="
M308.662140,552.077148 
	C304.555481,552.403381 301.708252,550.876465 302.054260,547.064514 
	C302.245636,544.955933 304.454834,541.553772 306.005920,541.407898 
	C308.089020,541.211853 311.313568,543.077576 312.429901,544.998596 
	C314.173615,547.999268 312.016754,550.519592 308.662140,552.077148 
z"/>
<path fill="#000000" opacity="1.000000" stroke="none" 
	d="
M475.078125,860.071533 
	C477.411346,859.216919 479.646027,857.936768 481.486969,858.361816 
	C482.693878,858.640503 484.206665,861.513000 483.990540,862.991028 
	C483.749603,864.638733 481.963562,866.530701 480.357239,867.348083 
	C479.231659,867.920837 476.417328,867.364441 475.885651,866.436646 
	C474.924927,864.759888 475.107330,862.428223 475.078125,860.071533 
z"/>
<path fill="#000000" opacity="1.000000" stroke="none" 
	d="
M148.350525,688.563721 
	C150.711563,691.719727 150.559540,694.735596 147.739182,696.593567 
	C146.195908,697.610291 142.731232,697.927063 141.664993,696.926697 
	C140.103745,695.461792 139.010971,692.389160 139.346313,690.257751 
	C139.924225,686.584656 143.735916,685.948853 148.350525,688.563721 
z"/>
<path fill="#000000" opacity="1.000000" stroke="none" 
	d="
M215.844482,521.051147 
	C218.573029,518.121521 221.678833,516.573975 224.254791,519.993042 
	C225.540649,521.699707 226.096359,525.269409 225.141968,526.953552 
	C224.314041,528.414612 220.546326,529.435059 218.695465,528.812988 
	C215.687057,527.801819 213.524887,525.160034 215.844482,521.051147 
z"/>
<path fill="#000000" opacity="1.000000" stroke="none" 
	d="
M725.835754,542.946838 
	C728.538208,542.323608 731.367981,541.316467 733.508667,542.127808 
	C734.795410,542.615479 735.871704,546.105652 735.513672,547.949646 
	C734.872375,551.252747 731.847473,552.976257 728.702820,551.772400 
	C724.981995,550.347839 723.728943,547.207703 725.835754,542.946838 
z"/>
<path fill="#000000" opacity="1.000000" stroke="none" 
	d="
M616.473145,899.728027 
	C618.554871,897.436707 620.421021,894.476501 623.425415,896.843567 
	C625.195862,898.238464 626.784668,900.903564 626.855103,903.049866 
	C626.901855,904.474609 624.361816,906.679932 622.549744,907.321289 
	C619.047729,908.560913 615.939514,904.725037 616.473145,899.728027 
z"/>
<path fill="#000000" opacity="1.000000" stroke="none" 
	d="
M314.005188,417.224274 
	C316.971924,413.897888 319.927490,414.347961 322.421173,416.880768 
	C324.661987,419.156647 324.826172,422.424042 322.238403,424.251129 
	C320.514374,425.468414 317.201019,425.925781 315.319366,425.093933 
	C312.167999,423.700684 312.200409,420.506104 314.005188,417.224274 
z"/>
<path fill="#000000" opacity="1.000000" stroke="none" 
	d="
M255.572845,853.368774 
	C252.422501,850.893494 251.945953,848.088440 254.278107,845.458313 
	C256.133331,843.366028 259.099670,841.537109 261.423401,844.279785 
	C262.966125,846.100708 264.240021,849.567871 263.533569,851.549133 
	C262.425873,854.655579 259.195404,855.726868 255.572845,853.368774 
z"/>
<path fill="#000000" opacity="1.000000" stroke="none" 
	d="
M244.851471,762.675903 
	C243.557526,765.941040 241.556076,768.072632 238.343414,767.012878 
	C236.627533,766.446899 234.299072,764.480835 234.208862,763.025085 
	C234.081085,760.963135 235.215332,758.145691 236.791138,756.798645 
	C239.909164,754.133484 243.879196,756.967834 244.851471,762.675903 
z"/>
<path fill="#000000" opacity="1.000000" stroke="none" 
	d="
M697.158447,916.552979 
	C694.419983,916.048035 691.551147,915.811096 689.750610,914.300598 
	C688.800354,913.503479 689.061890,910.133301 689.922363,908.546082 
	C691.599792,905.452026 694.574768,905.098328 697.531067,907.052734 
	C700.744629,909.177368 700.675476,912.156250 697.158447,916.552979 
z"/>
</svg>